HIERARCHY
ROOT Hips
{
	OFFSET 0.000000 0.000000 0.000000
	CHANNELS 6 Xposition Yposition Zposition Zrotation Yrotation Xrotation 
	JOINT LeftUpLeg_virtual
	{
		OFFSET 0.000000 0.000000 0.000000
		CHANNELS 3 Zrotation Yrotation Xrotation
		JOINT LeftUpLeg
		{
			OFFSET 8.479694 -4.795517 -0.379053
			CHANNELS 3 Zrotation Yrotation Xrotation
			JOINT LeftLeg
			{
				OFFSET 0.485052 -32.551468 0.112863
				CHANNELS 3 Zrotation Yrotation Xrotation
				JOINT LeftFoot
				{
					OFFSET 0.438033 -32.635670 -3.012641
					CHANNELS 3 Zrotation Yrotation Xrotation
					JOINT LeftToeBase
					{
						OFFSET 0.970169 -13.225353 11.864223
						CHANNELS 3 Zrotation Yrotation Xrotation
						End Site
						{
							OFFSET 0.000000 0.000000 0.000000
						}
					}
				}
			}
		}
	}
	JOINT RightUpLeg_virtual
	{
		OFFSET 0.000000 0.000000 0.000000
		CHANNELS 3 Zrotation Yrotation Xrotation
		JOINT RightUpLeg
		{
			OFFSET -8.479694 -4.795517 -0.379053
			CHANNELS 3 Zrotation Yrotation Xrotation
			JOINT RightLeg
			{
				OFFSET -0.484100 -32.551483 0.112903
				CHANNELS 3 Zrotation Yrotation Xrotation
				JOINT RightFoot
				{
					OFFSET -0.438985 -32.635651 -3.012681
					CHANNELS 3 Zrotation Yrotation Xrotation
					JOINT RightToeBase
					{
						OFFSET -0.970169 -13.225354 11.864223
						CHANNELS 3 Zrotation Yrotation Xrotation
						End Site
						{
							OFFSET 0.000000 0.000000 0.000000
						}
					}
				}
			}
		}
	}
	JOINT Spine_virtual
	{
		OFFSET 0.000000 0.000000 0.000000
		CHANNELS 3 Zrotation Yrotation Xrotation
		JOINT Spine
		{
			OFFSET 0.000000 7.722015 1.166203
			CHANNELS 3 Zrotation Yrotation Xrotation
			JOINT Spine1
			{
				OFFSET 0.000000 12.024086 0.248766
				CHANNELS 3 Zrotation Yrotation Xrotation
				JOINT Spine2
				{
					OFFSET -0.000000 11.503036 -0.491240
					CHANNELS 3 Zrotation Yrotation Xrotation
					JOINT Neck_virtual
					{
						OFFSET 0.000000 0.000000 0.000000
						CHANNELS 3 Zrotation Yrotation Xrotation
						JOINT Neck
						{
							OFFSET 0.000000 18.430687 -3.123054
							CHANNELS 3 Zrotation Yrotation Xrotation
							JOINT Head
							{
								OFFSET -0.000000 9.051071 1.034021
								CHANNELS 3 Zrotation Yrotation Xrotation
								End Site
								{
									OFFSET 0.000000 0.000000 0.000000
								}
							}
						}
					}
					JOINT LeftShoulder_virtual
					{
						OFFSET 0.000000 0.000000 0.000000
						CHANNELS 3 Zrotation Yrotation Xrotation
						JOINT LeftShoulder
						{
							OFFSET 6.197824 13.665230 -4.064723
							CHANNELS 3 Zrotation Yrotation Xrotation
							JOINT LeftArm
							{
								OFFSET 7.778132 -0.187073 -1.709282
								CHANNELS 3 Zrotation Yrotation Xrotation
								JOINT LeftForeArm
								{
									OFFSET 21.954697 0.000000 -2.041093
									CHANNELS 3 Zrotation Yrotation Xrotation
									JOINT LeftHand
									{
										OFFSET 22.992908 0.000000 -0.870901
										CHANNELS 3 Zrotation Yrotation Xrotation
										End Site
										{
											OFFSET 0.000000 0.000000 0.000000
										}
									}
								}
							}
						}
					}
					JOINT RightShoulder_virtual
					{
						OFFSET 0.000000 0.000000 0.000000
						CHANNELS 3 Zrotation Yrotation Xrotation
						JOINT RightShoulder
						{
							OFFSET -6.197824 13.665230 -4.064723
							CHANNELS 3 Zrotation Yrotation Xrotation
							JOINT RightArm
							{
								OFFSET -7.778132 -0.187073 -1.709282
								CHANNELS 3 Zrotation Yrotation Xrotation
								JOINT RightForeArm
								{
									OFFSET -21.954697 0.000000 -2.041093
									CHANNELS 3 Zrotation Yrotation Xrotation
									JOINT RightHand
									{
										OFFSET -22.992908 0.000000 -0.870901
										CHANNELS 3 Zrotation Yrotation Xrotation
										End Site
										{
											OFFSET 0.000000 0.000000 0.000000
										}
									}
								}
							}
						}
					}
				}
			}
		}
	}
}
MOTION
Frames: 9
Frame Time: 0.033333
-5.922908 61.339283 6.627211 179.981331 -1.739836 179.978094 10.461077 -8.810547 -19.296674 0.255375 4.965429 -54.248808 14.390751 0.332673 77.619164 -2.834112 -13.005484 -11.766179 0.000000 0.000000 0.000000 7.018795 -4.453292 -17.042999 5.700534 -7.189147 -63.009492 -1.276737 0.394428 96.844255 1.046390 12.352611 -11.553548 0.000000 0.000000 0.000000 7.073963 -4.573270 -17.630281 0.919234 -0.015583 -9.417563 -4.026387 0.274367 18.302028 -0.025072 0.008278 -0.011382 -4.407214 0.369624 21.254179 -6.894619 7.311025 4.496721 0.000000 0.000000 0.000000 -2.010696 0.854371 17.268619 -7.532648 -0.634844 1.435987 -64.042989 12.563126 -14.561453 8.015691 -80.509967 10.952961 0.000000 0.000000 0.000000 -6.280510 2.420801 16.818946 22.311942 11.870561 5.673617 52.181447 1.844563 13.334576 -18.381636 58.357621 -14.238668 0.000000 0.000000 0.000000 
-6.084694 61.324791 6.594767 179.973053 -2.242136 179.880094 10.328549 -9.104380 -18.994968 0.259790 4.607209 -54.781020 14.434507 0.013379 79.607371 -2.632017 -12.895010 -12.157261 0.000000 0.000000 0.000000 6.935498 -4.862049 -16.927072 5.329348 -7.092233 -62.772819 -1.390297 0.270426 96.454183 0.989250 12.155122 -11.794430 0.000000 0.000000 0.000000 6.902826 -4.989170 -17.301491 0.957699 0.283342 -9.206066 -4.193284 0.397021 18.245628 0.022747 0.066782 0.011058 -4.656926 0.586679 21.148205 -8.376550 7.850298 4.716631 0.000000 0.000000 0.000000 -2.231794 0.997506 17.158390 -7.196751 -0.573818 1.600930 -64.150544 12.147312 -13.922910 7.833272 -80.812558 11.140926 0.000000 0.000000 0.000000 -6.514864 2.480117 16.737560 22.870468 11.841075 5.619359 51.782379 1.676023 13.092028 -17.962742 58.213757 -13.942475 0.000000 0.000000 0.000000 
-6.261423 61.305340 6.556878 -179.989295 -2.915039 -179.953696 10.288922 -9.634482 -18.869378 0.180353 4.445976 -55.488979 14.450356 -0.338054 81.493992 -2.486820 -12.856092 -12.448866 0.000000 0.000000 0.000000 6.868497 -5.332789 -16.990017 4.822587 -6.915992 -62.504878 -1.548710 0.196488 95.522265 0.830550 11.794533 -11.726933 0.000000 0.000000 0.000000 6.715757 -5.178975 -17.185779 1.062339 0.563180 -9.027917 -4.367541 0.457357 18.190775 -0.014634 -0.008440 0.051839 -4.798454 0.627591 21.169157 -9.760770 8.478312 4.865160 0.000000 0.000000 0.000000 -2.368564 1.101952 17.137745 -6.895452 -0.518900 1.685073 -64.582034 11.688317 -13.539816 8.321547 -80.895688 10.662605 0.000000 0.000000 0.000000 -6.632393 2.665409 16.684455 23.336660 11.801889 5.554519 51.374907 1.473682 12.675730 -17.427007 58.132232 -13.550240 0.000000 0.000000 0.000000 
-6.421156 61.293095 6.505116 179.967070 -3.740063 -179.987929 10.114550 -10.060063 -18.739158 0.197151 4.121793 -56.050370 14.469062 -0.483158 83.335848 -2.411675 -12.904838 -12.582359 0.000000 0.000000 0.000000 6.753318 -5.828975 -16.891369 4.219523 -6.576312 -62.102908 -1.605334 0.250680 93.889870 0.826110 11.465086 -11.149778 0.000000 0.000000 0.000000 6.534013 -5.690548 -17.026215 1.170617 0.889078 -8.751670 -4.481902 0.576616 18.183295 0.003498 0.060272 -0.000721 -4.966072 0.814486 21.179536 -10.944702 9.044994 4.983259 0.000000 0.000000 0.000000 -2.548386 1.148924 17.061746 -6.690401 -0.424474 1.823806 -65.035764 11.157012 -13.515618 7.784973 -80.784220 11.222411 0.000000 0.000000 0.000000 -6.830856 2.780850 16.668873 23.726429 11.716616 5.494389 50.996754 1.374952 12.231571 -16.904156 58.064517 -13.188657 0.000000 0.000000 0.000000 
-6.511930 61.297794 6.424660 -179.997983 -4.761870 179.969447 9.969648 -10.424341 -18.606303 0.014678 3.975132 -56.650849 14.450691 -0.845597 84.976057 -2.372813 -12.956347 -12.596506 0.000000 0.000000 0.000000 6.695371 -6.294218 -16.780011 3.782223 -6.247920 -61.817679 -1.613828 0.251900 92.553209 0.978296 11.243388 -10.523610 0.000000 0.000000 0.000000 6.293104 -5.868913 -16.804424 1.292277 1.171788 -8.487364 -4.578446 0.630636 18.194731 -0.013639 0.008783 -0.004655 -5.007688 0.866870 21.221389 -11.996806 9.559338 5.022061 0.000000 0.000000 0.000000 -2.620447 1.252938 17.164231 -6.427003 -0.457062 1.917865 -65.385319 10.494722 -13.559169 7.088013 -80.495460 11.952969 0.000000 0.000000 0.000000 -6.878438 2.805832 16.680980 24.115702 11.572792 5.422215 50.786787 1.434211 11.801828 -16.437793 57.968539 -12.879843 0.000000 0.000000 0.000000 
-6.534555 61.325680 6.329900 179.952235 -5.850249 179.938793 9.732618 -10.672603 -18.355464 -0.113831 3.914836 -57.259054 14.412157 -1.101998 86.680169 -2.401289 -13.152519 -12.449700 0.000000 0.000000 0.000000 6.610936 -6.599106 -16.630833 3.585323 -5.945677 -61.753038 -1.658238 0.151920 91.486989 1.073598 11.031363 -9.834561 0.000000 0.000000 0.000000 6.046459 -6.261765 -16.540469 1.355226 1.442327 -8.224726 -4.642548 0.699865 18.216844 0.004168 0.050081 -0.058729 -5.121355 1.041511 21.238002 -12.947787 10.116298 4.958274 0.000000 0.000000 0.000000 -2.729835 1.336434 17.103069 -6.157319 -0.436665 2.096444 -65.643077 9.817758 -13.476316 7.140509 -80.078217 11.945920 0.000000 0.000000 0.000000 -6.988845 2.932669 16.730337 24.451063 11.530770 5.353436 50.598847 1.722557 11.409337 -16.012284 57.760287 -12.653715 0.000000 0.000000 0.000000 
-6.501456 61.358337 6.222628 179.912524 -6.969492 -179.976536 9.554376 -10.977927 -18.111676 -0.245215 3.967811 -57.905019 14.324747 -1.253749 88.068807 -2.522179 -13.473755 -12.177552 0.000000 0.000000 0.000000 6.518861 -6.887554 -16.445922 3.580901 -5.738100 -61.950171 -1.824769 0.005078 90.877723 0.821580 10.408564 -9.197583 0.000000 0.000000 0.000000 5.649957 -6.336915 -16.243155 1.455263 1.651823 -8.015176 -4.656839 0.687698 18.171739 -0.031492 -0.022457 -0.008766 -5.105756 1.066909 21.219458 -13.797888 10.533125 4.750912 0.000000 0.000000 0.000000 -2.711293 1.414561 17.080585 -5.766550 -0.522540 2.243076 -65.684065 8.928846 -13.470425 6.413265 -79.584251 12.710326 0.000000 0.000000 0.000000 -6.961715 2.975673 16.750890 24.830579 11.480906 5.233183 50.459669 2.169177 11.078096 -15.413102 57.409919 -12.207895 0.000000 0.000000 0.000000 
-6.458133 61.391369 6.112557 179.867335 -7.977792 -179.913876 9.346365 -11.356907 -17.765918 -0.388158 4.128495 -58.532092 14.216778 -1.277444 88.847565 -2.653075 -13.886832 -11.868477 0.000000 0.000000 0.000000 6.417509 -7.267398 -16.143751 3.598497 -5.475174 -62.255979 -1.953403 -0.060758 90.670700 0.600428 9.912759 -9.106687 0.000000 0.000000 0.000000 5.427466 -6.600752 -15.887367 1.358735 1.909676 -7.746008 -4.659668 0.771239 18.118682 0.002196 0.013445 0.044992 -5.055047 1.105790 21.190022 -14.520234 10.882295 4.481148 0.000000 0.000000 0.000000 -2.693313 1.415523 17.100456 -5.331046 -0.638045 2.291582 -65.655310 7.884772 -13.433441 5.604012 -78.993392 13.546859 0.000000 0.000000 0.000000 -6.916735 2.982798 16.751640 25.184239 11.442222 5.110365 50.209311 2.813641 10.792137 -14.913723 56.891265 -11.871466 0.000000 0.000000 0.000000 
-6.444937 61.417587 6.024067 -179.967056 -8.744415 -179.985566 9.239804 -11.695499 -17.360054 -0.449979 4.256103 -58.948754 14.104195 -1.317105 89.122364 -2.657627 -14.277073 -11.644192 0.000000 0.000000 0.000000 6.416546 -7.726678 -15.784507 3.724589 -5.258064 -62.588309 -2.069651 -0.136359 90.562059 0.458567 9.511733 -8.922814 0.000000 0.000000 0.000000 5.283325 -6.887573 -15.428098 1.348256 2.121009 -7.380275 -4.573317 0.805142 18.158500 -0.050072 0.024505 0.031798 -5.059693 1.112794 21.161823 -15.169794 11.100575 4.144637 0.000000 0.000000 0.000000 -2.702609 1.424134 17.062289 -4.962131 -0.820273 2.426806 -65.541355 6.691831 -13.405876 5.487971 -78.333568 13.662900 0.000000 0.000000 0.000000 -6.877344 3.021534 16.727569 25.475738 11.462592 5.012414 49.823259 3.563160 10.547178 -14.329530 56.207030 -11.396648 0.000000 0.000000 0.000000 
